#!OML:ASF I:\Actors\actors\Patient Classification 1\Patient 1\Session 1\Subject1.ASF
:FULLY-SPECIFIED
:DEGREES
335
root 0.889022 17.5341 9.21457 10.8708 -6.64053 -9.08003
lowerback 0.774204 3.18466 6.35483
upperback -7.38186 4.66681 0.901497
thorax -7.77803 1.9222 -2.9224
lowerneck -15.4446 -2.76696 0.644722
upperneck 27.3099 -5.85793 5.63962
head 11.6528 -1.86552 1.12253
rclavicle -2.28105e-014 7.95139e-016
rhumerus 37.3014 55.4247 -33.0787
rradius 93.7408
rwrist 22.8649
rhand 2.93706 -25.1869
rfingers 7.12502
rthumb 28.4004 -53.0522
lclavicle -2.28105e-014 7.95139e-016
lhumerus -30.0989 -31.4058 84.6852
lradius 100.39
lwrist -12.6698
lhand -13.5838 -15.7158
lfingers 7.12502
lthumb 12.5304 13.8884
rfemur -7.84798 25.1995 23.0223
rtibia 4.04271
rfoot -10.4447 -19.6848
rtoes -4.05839
lfemur 4.10375 -41.2404 -12.5
ltibia -3.89929
lfoot -24.1429 52.6419
ltoes 13.7224
336
root 0.87826 17.5343 9.22238 10.8464 -6.31483 -9.13645
lowerback 0.681973 3.17141 6.21893
upperback -7.39176 4.63248 0.853207
thorax -7.74248 1.91404 -2.89052
lowerneck -15.3559 -2.91337 0.319846
upperneck 26.946 -6.13841 6.28999
head 11.5413 -1.95648 1.37468
rclavicle 1.15792e-014 3.37934e-014
rhumerus 31.7578 55.3589 -39.4163
rradius 93.6549
rwrist 23.3049
rhand -0.244483 -27.0899
rfingers 7.12502
rthumb 25.3562 -55.4241
lclavicle 1.15792e-014 3.37934e-014
lhumerus -30.6095 -29.7881 85.1101
lradius 100.521
lwrist -12.8563
lhand -14.2851 -16.1437
lfingers 7.12502
lthumb 11.8542 13.5008
rfemur -7.69834 25.0802 23.1996
rtibia 3.96427
rfoot -10.4896 -19.8642
rtoes -4.08899
lfemur 4.07712 -41.3899 -12.3576
ltibia -3.88423
lfoot -23.9165 52.5561
ltoes 13.4534
337
root 0.865224 17.5342 9.23211 10.8415 -5.97304 -9.26114
lowerback 0.644264 3.12609 5.86084
upperback -7.46143 4.56523 1.00105
thorax -7.83742 1.90583 -2.53458
lowerneck -15.2409 -3.05933 -0.0299122
upperneck 26.6576 -6.35003 6.72088
head 11.4448 -2.04557 1.56036
rclavicle -5.94863e-014 3.97569e-016
rhumerus 25.7804 55.1559 -46.0072
rradius 93.7634
rwrist 23.0461
rhand -1.80971 -29.094
rfingers 7.12502
rthumb 23.8559 -57.6326
lclavicle -5.94863e-014 3.97569e-016
lhumerus -31.3279 -27.9542 85.7654
lradius 100.863
lwrist -12.3921
lhand -15.3335 -16.028
lfingers 7.12502
lthumb 10.843 13.6721
rfemur -7.56129 24.9545 23.4605
rtibia 3.89814
rfoot -10.5081 -20.0428
rtoes -4.15051
lfemur 4.02439 -41.4561 -12.0872
ltibia -3.9003
lfoot -23.5648 52.4139
ltoes 13.0457
338
root 0.852726 17.5334 9.24372 10.84 -5.58367 -9.33542
lowerback 0.555401 3.06316 5.56616
upperback -7.50692 4.46682 1.06615
thorax -7.86678 1.87813 -2.29419
lowerneck -15.1708 -3.22204 -0.266559
upperneck 26.3385 -6.59857 7.09645
head 11.344 -2.14725 1.69952
rclavicle -2.03754e-015 1.35174e-014
rhumerus 19.3993 54.5626 -53.0526
rradius 94.1114
rwrist 19.8582
rhand -2.79285 -31.6854
rfingers 7.12502
rthumb 22.9128 -60.344
lclavicle -2.03754e-015 1.35174e-014
lhumerus -32.0624 -25.7969 86.407
lradius 101.342
lwrist -11.4222
lhand -16.0577 -15.4201
lfingers 7.12502
lthumb 10.1445 14.3153
rfemur -7.43798 24.8192 23.6504
rtibia 3.83478
rfoot -10.5555 -20.2652
rtoes -4.19647
lfemur 3.93968 -41.5913 -11.8639
ltibia -3.88882
lfoot -23.3706 52.2746
ltoes 12.7981
339
root 0.842629 17.5318 9.25544 10.8134 -5.16974 -9.38772
lowerback 0.49546 2.96903 5.35428
upperback -7.51981 4.33039 1.11717
thorax -7.87296 1.82685 -2.11256
lowerneck -15.1196 -3.3786 -0.527683
upperneck 25.9754 -6.81544 7.43394
head 11.23 -2.24333 1.83212
rclavicle -1.14301e-015 -2.38542e-014
rhumerus 13.1642 53.6872 -59.9673
rradius 94.743
rwrist 13.0802
rhand -1.33443 -34.9496
rfingers 7.12502
rthumb 24.3116 -63.4278
lclavicle -1.14301e-015 -2.38542e-014
lhumerus -32.8615 -23.3964 86.9813
lradius 101.871
lwrist -9.9878
lhand -16.8608 -15.0185
lfingers 7.12502
lthumb 9.36965 14.7532
rfemur -7.27932 24.7321 23.8162
rtibia 3.74471
rfoot -10.6468 -20.5616
rtoes -4.05673
lfemur 3.86612 -41.7593 -11.6853
ltibia -3.86385
lfoot -23.1128 52.1296
ltoes 12.4942
340
root 0.833663 17.529 9.26715 10.7863 -4.81455 -9.44041
lowerback 0.418575 2.88554 5.16524
upperback -7.50147 4.20835 1.1929
thorax -7.83358 1.78391 -1.91657
lowerneck -14.939 -3.50564 -0.779144
upperneck 25.4153 -6.9443 7.6847
head 11.0088 -2.31947 1.94284
rclavicle 9.59136e-015 1.19271e-014
rhumerus 7.58751 52.4782 -66.2224
rradius 95.5522
rwrist 4.63711
rhand -1.94089 -39.071
rfingers 7.12502
rthumb 23.7301 -67.626
lclavicle 9.59136e-015 1.19271e-014
lhumerus -33.7846 -20.8607 87.4421
lradius 102.502
lwrist -8.42445
lhand -18.0298 -15.0175
lfingers 7.12502
lthumb 8.24158 14.8018
rfemur -7.15461 24.5384 23.9724
rtibia 3.70694
rfoot -10.7183 -20.6937
rtoes -4.03137
lfemur 3.83576 -41.9781 -11.5493
ltibia -3.84264
lfoot -23.035 52.0259
ltoes 12.3845
341
root 0.825492 17.5265 9.28027 10.7658 -4.50467 -9.46424
lowerback 0.296778 2.82603 4.99338
upperback -7.45877 4.11549 1.2722
thorax -7.73786 1.75625 -1.72497
lowerneck -14.6291 -3.61136 -1.09399
upperneck 24.6411 -6.99725 7.91942
head 10.6827 -2.3796 2.06791
rclavicle -1.26228e-014 -1.43125e-014
rhumerus 2.82326 50.7015 -71.6363
rradius 95.6512
rwrist -0.191058
rhand -3.44074 -41.5594
rfingers 7.12502
rthumb 22.2909 -70.2937
lclavicle -1.26228e-014 -1.43125e-014
lhumerus -34.873 -18.1975 87.8939
lradius 103.278
lwrist -7.02297
lhand -19.4038 -14.9707
lfingers 7.12502
lthumb 6.91537 14.8963
rfemur -7.05047 24.3201 24.0822
rtibia 3.69262
rfoot -10.8028 -20.7556
rtoes -3.97522
lfemur 3.87318 -42.3342 -11.5271
ltibia -3.80538
lfoot -23.1937 52.0886
ltoes 12.3986
342
root 0.818542 17.5245 9.29246 10.7518 -4.29009 -9.47424
lowerback 0.174911 2.76431 4.85868
upperback -7.40896 4.02273 1.37586
thorax -7.63354 1.72701 -1.52859
lowerneck -14.3419 -3.6731 -1.45459
upperneck 23.8984 -6.95689 8.06768
head 10.3695 -2.4091 2.18222
rclavicle -7.10655e-015 5.96354e-015
rhumerus -0.208469 49.6364 -75.151
rradius 94.6872
rwrist 0.833487
rhand -4.20132 -43.743
rfingers 7.12502
rthumb 21.5606 -72.5628
lclavicle -7.10655e-015 5.96354e-015
lhumerus -35.9933 -15.4917 88.2813
lradius 103.996
lwrist -5.69556
lhand -21.0086 -14.7227
lfingers 7.12502
lthumb 5.36601 15.1894
rfemur -6.97147 24.2673 24.1505
rtibia 3.68948
rfoot -10.9541 -20.872
rtoes -3.51445
lfemur 3.96148 -42.7134 -11.5701
ltibia -3.78256
lfoot -23.4271 52.2639
ltoes 12.4534
343
root 0.813031 17.5217 9.30218 10.7578 -4.2565 -9.46354
lowerback 0.0556457 2.72279 4.75051
upperback -7.38262 3.95782 1.45415
thorax -7.55091 1.70756 -1.37612
lowerneck -14.1634 -3.66567 -1.57087
upperneck 23.4288 -6.83313 7.92602
head 10.1543 -2.39869 2.1651
rclavicle 6.4605e-016 -8.74653e-015
rhumerus -2.39695 48.4685 -77.7674
rradius 93.6875
rwrist 4.44752
rhand 0.697006 -45.8891
rfingers 7.12502
rthumb 26.2578 -74.0922
lclavicle 6.4605e-016 -8.74653e-015
lhumerus -37.1079 -12.7634 88.4695
lradius 104.615
lwrist -4.26643
lhand -22.5675 -14.4124
lfingers 7.12502
lthumb 3.86079 15.5324
rfemur -6.97574 24.2055 24.1592
rtibia 3.74959
rfoot -11.0534 -20.8306
rtoes -3.38371
lfemur 4.06991 -42.9683 -11.6556
ltibia -3.78976
lfoot -23.8688 52.4168
ltoes 12.8045
344
root 0.810531 17.5187 9.31056 10.7632 -4.34373 -9.43294
lowerback -0.0351928 2.71578 4.68959
upperback -7.38847 3.94035 1.46483
thorax -7.50948 1.70431 -1.32558
lowerneck -14.0998 -3.63313 -1.48822
upperneck 23.2424 -6.73056 7.69848
head 10.0565 -2.37756 2.08324
rclavicle -4.62174e-015 -1.47101e-014
rhumerus -3.97732 47.7302 -79.5886
rradius 93.1403
rwrist 4.196
rhand 6.04723 -48.0781
rfingers 7.12502
rthumb 31.3683 -75.4087
lclavicle -4.62174e-015 -1.47101e-014
lhumerus -38.2134 -10.148 88.4319
lradius 105.192
lwrist -2.33657
lhand -23.9846 -14.0356
lfingers 7.12502
lthumb 2.49227 15.9296
rfemur -6.98999 24.0935 24.1283
rtibia 3.79867
rfoot -11.062 -20.6557
rtoes -3.5366
lfemur 4.23781 -43.1768 -11.8277
ltibia -3.81254
lfoot -24.3463 52.6417
ltoes 13.1266
345
root 0.810476 17.5166 9.31948 10.7669 -4.51563 -9.35483
lowerback -0.0972284 2.74729 4.62923
upperback -7.41998 3.97427 1.41931
thorax -7.50581 1.72302 -1.33917
lowerneck -14.0666 -3.67157 -1.56125
upperneck 23.1248 -6.76805 7.74227
head 10.0141 -2.40105 2.10518
rclavicle -5.89397e-014 2.22639e-014
rhumerus -5.14854 47.0966 -80.8449
rradius 93.5653
rwrist -1.36018
rhand 9.3734 -47.9693
rfingers 7.12502
rthumb 34.5318 -74.6334
lclavicle -5.89397e-014 2.22639e-014
lhumerus -39.237 -7.6713 88.2618
lradius 105.682
lwrist 0.119243
lhand -25.2677 -13.4799
lfingers 7.12502
lthumb 1.25299 16.4962
rfemur -6.97586 24.0836 24.0299
rtibia 3.79673
rfoot -11.041 -20.5042
rtoes -3.53523
lfemur 4.45882 -43.3355 -12.0975
ltibia -3.8751
lfoot -24.7637 52.9121
ltoes 13.3574
346
root 0.811342 17.5158 9.32918 10.8235 -4.74803 -9.25795
lowerback -0.185553 2.84603 4.62157
upperback -7.46642 4.09549 1.30784
thorax -7.49037 1.77931 -1.45431
lowerneck -13.837 -3.78449 -1.54633
upperneck 22.7132 -6.91159 7.81511
head 9.8338 -2.47685 2.10848
rclavicle 3.57315e-014 4.6118e-014
rhumerus -6.19734 46.6552 -81.8122
rradius 94.3528
rwrist -7.80369
rhand 8.76448 -50.6088
rfingers 7.12502
rthumb 33.9536 -77.4028
lclavicle 3.57315e-014 4.6118e-014
lhumerus -40.1016 -5.39645 88.0285
lradius 106.089
lwrist 2.67073
lhand -26.4152 -12.76
lfingers 7.12502
lthumb 0.144733 17.2197
rfemur -7.00101 24.2318 23.8869
rtibia 3.77165
rfoot -10.9562 -20.4708
rtoes -3.92971
lfemur 4.51363 -43.1272 -12.2483
ltibia -3.94412
lfoot -24.769 52.9365
ltoes 13.2796
347
root 0.81499 17.5167 9.33871 10.9075 -4.97967 -9.20107
lowerback -0.287714 2.98632 4.73789
upperback -7.49359 4.27454 1.17897
thorax -7.43327 1.85702 -1.65721
lowerneck -13.6678 -3.91924 -1.72023
upperneck 22.3523 -7.09034 8.07042
head 9.70061 -2.5621 2.20271
rclavicle 1.99779e-014 -1.90833e-014
rhumerus -6.83778 45.9954 -82.2186
rradius 95.704
rwrist -10.8427
rhand 5.34573 -49.4183
rfingers 7.12502
rthumb 30.6997 -76.8765
lclavicle 1.99779e-014 -1.90833e-014
lhumerus -40.7991 -3.3429 87.7586
lradius 106.406
lwrist 4.96106
lhand -27.6626 -12.0283
lfingers 7.12502
lthumb -1.06005 17.9488
rfemur -7.03169 24.4798 23.7702
rtibia 3.69567
rfoot -10.8672 -20.5206
rtoes -4.34184
lfemur 4.43723 -42.7166 -12.2734
ltibia -3.95378
lfoot -24.3852 52.8193
ltoes 12.8341
348
root 0.820863 17.5184 9.34871 10.9591 -5.16875 -9.20481
lowerback -0.341564 3.11502 4.92456
upperback -7.52491 4.44682 1.09421
thorax -7.40705 1.92761 -1.85481
lowerneck -13.4004 -4.05161 -2.01322
upperneck 21.877 -7.25209 8.43405
head 9.51791 -2.64452 2.35717
rclavicle -3.16565e-014 -2.3059e-014
rhumerus -7.06648 45.2074 -82.064
rradius 97.4104
rwrist -9.6847
rhand 8.49437 -51.6137
rfingers 7.12502
rthumb 33.6969 -78.4642
lclavicle -3.16565e-014 -2.3059e-014
lhumerus -41.5029 -1.45443 87.428
lradius 106.663
lwrist 6.98115
lhand -29.0982 -11.4055
lfingers 7.12502
lthumb -2.44651 18.5602
rfemur -7.00674 24.6698 23.7301
rtibia 3.59425
rfoot -10.8466 -20.52
rtoes -4.33861
lfemur 4.49073 -42.5656 -12.3349
ltibia -3.98911
lfoot -24.3786 52.8345
ltoes 12.8142
